<?xml version="1.0" encoding="UTF-8"?>
<svg width="25px" height="25px" viewBox="0 0 25 25" version="1.1" xmlns="http://www.w3.org/2000/svg" xmlns:xlink="http://www.w3.org/1999/xlink">
    <!-- Generator: Sketch 43.1 (39012) - http://www.bohemiancoding.com/sketch -->
    <title>Facebook Icon</title>
    <desc>Created with Sketch.</desc>
    <defs></defs>
    <g id="Page-1" stroke="none" stroke-width="1" fill="none" fill-rule="evenodd">
        <g id="Home" transform="translate(-956.000000, -52.000000)">
            <g id="1st-Block" transform="translate(0.000000, -24.000000)">
                <g id="Menu" transform="translate(103.000000, 0.000000)">
                    <g id="Facebook-Icon" transform="translate(853.000000, 76.000000)">
                        <path d="M12.4681122,0.252721546 C5.58214286,0.252721546 0,5.78388064 0,12.6069579 C0,19.4300352 5.58214286,24.9611943 12.4681122,24.9611943 C19.3540816,24.9611943 24.9362245,19.4300352 24.9362245,12.6069579 C24.9362245,5.78388064 19.3540816,0.252721546 12.4681122,0.252721546" id="Fill-1" fill="#4A4A4A"></path>
                        <path d="M16.55125,7.40278484 L15.0708929,7.40354315 C13.9099235,7.40354315 13.6856888,7.95003643 13.6856888,8.75182954 L13.6856888,10.5202232 L16.453801,10.5202232 L16.4522704,13.2900998 L13.6859439,13.2900998 L13.6859439,20.3977985 L10.798699,20.3977985 L10.798699,13.2900998 L8.38517857,13.2900998 L8.38517857,10.5202232 L10.798699,10.5202232 L10.798699,8.47757181 C10.798699,6.10732782 12.2604337,4.81616794 14.3943622,4.81616794 L16.5515051,4.81945397 L16.5515051,7.40278484 L16.55125,7.40278484 Z" id="Fill-4" fill="#FFFFFF"></path>
                    </g>
                </g>
            </g>
        </g>
    </g>
</svg>