<?xml version="1.0" encoding="UTF-8"?>
<svg width="360px" height="321px" viewBox="0 0 360 321" version="1.1" xmlns="http://www.w3.org/2000/svg" xmlns:xlink="http://www.w3.org/1999/xlink">
    <!-- Generator: Sketch 43.1 (39012) - http://www.bohemiancoding.com/sketch -->
    <title>Graphic foot</title>
    <desc>Created with Sketch.</desc>
    <defs>
        <rect id="path-1" x="0" y="0" width="375" height="321"></rect>
    </defs>
    <g id="Page-1" stroke="none" stroke-width="1" fill="none" fill-rule="evenodd">
        <g id="Home" transform="translate(-581.000000, -96.000000)">
            <g id="1st-Block" transform="translate(0.000000, -24.000000)">
                <g id="Background" transform="translate(0.000000, 25.000000)">
                    <g id="Graphic-foot" transform="translate(568.000000, 95.000000)">
                        <mask id="mask-2" fill="white">
                            <use xlink:href="#path-1"></use>
                        </mask>
                        <g id="Mask"></g>
                        <g id="Page-1" opacity="0.782552083" mask="url(#mask-2)">
                            <g transform="translate(13.000000, -1.000000)">
                                <path d="M242.487807,58.2604952 C239.583186,75.7852186 238.572367,90.9131016 245.975908,109.014639 C254.294392,129.35213 268.849455,146.564222 272.616057,168.635812 C274.886975,181.943669 269.770788,193.65546 247.2981,204.569219 C223.789938,215.986662 195.981915,214.511261 181.26523,223.840838 C148.993898,244.301737 136.218497,288.273974 92.9669496,291.177241 C91.9077355,291.248543 90.8549132,291.259512 89.8048302,291.221119 C80.0171439,290.862781 70.3691642,286.16417 57.4047486,284.872509 C68.938312,283.196915 80.1440669,286.473145 91.6968058,285.4996 C132.745919,282.041458 138.217307,222.778623 174.038833,212.141845 C210.574416,201.292075 251.037308,201.383487 259.766694,180.404279 C264.335924,169.422875 258.97137,156.686347 252.13396,143.882174 C249.854824,139.615031 247.412239,135.337832 245.119406,131.118223 C232.428012,107.754972 228.849512,81.6091199 240.528261,56.8499977 C242.801005,52.0307216 243.067635,54.7639605 242.487807,58.2604952 M32.5323921,254.635025 C30.84952,255.943141 29.427799,257.155273 28.1813962,258.264108 C22.6460893,257.838125 9.12649934,256.828015 7.09938266,256.981589 C2.21786654,257.349982 -0.111491418,259.86383 0.00447426655,263.716874 C0.134136685,268.016012 2.19412553,271.930303 4.46687032,275.238527 C12.7826143,287.333338 26.1387565,292.003611 39.4839413,288.829763 C44.4585953,287.646883 48.4151253,285.668713 52.8227344,284.377966 C57.8174768,282.914449 63.2852132,282.184976 69.4825289,281.787331 C60.5257778,276.50185 48.1092315,281.413453 38.3069353,283.891651 C26.3122485,286.922895 16.2031454,284.825888 7.39523212,274.601381 C2.28908956,268.670527 -0.652968982,261.780754 5.85480606,259.22577 C7.67738485,258.510923 19.8966981,259.330894 26.8318113,259.479897 C20.1359344,265.592662 18.4475836,267.961165 3.63045641,265.197759 C3.63045641,265.197759 7.28017955,267.658589 15.2900298,267.752744 C27.1340525,267.893519 33.566039,258.071228 43.4066861,253.325082 C50.0496022,250.121067 57.1591205,248.469241 64.2385059,244.905975 C90.9964461,231.43906 106.366921,195.604378 124.752504,171.933067 C136.516173,156.787815 150.099681,138.666167 154.42511,124.680943 C160.320184,105.620486 158.445558,72.1735039 157.611883,62.0303538 C157.454827,60.1152583 157.334296,59.0301899 157.310555,59.0301899 C157.203721,60.0311587 157.102365,61.0348698 157.005574,62.0404092 C155.183909,80.9098129 154.82962,100.645809 149.089775,118.032499 C143.335321,135.46581 127.508287,151.261005 117.132555,168.663236 C102.834077,192.64535 85.3835244,224.206489 61.1348259,241.39847 C52.101373,247.801928 41.3357398,247.788216 32.5323921,254.635025" id="Fill-1" fill="#FEFEFE"></path>
                                <g id="Group-5" stroke-width="1" fill="none" transform="translate(6.391809, 0.492714)">
                                    <path d="M19.6126278,252.181692 C-9.97505769,188.556644 4.4896069,110.514904 59.9878614,62.1137222 C125.934898,4.60052554 225.348535,10.2772525 284.396983,74.0385052 C283.331377,72.7349605 282.252075,71.439643 281.138987,70.1607797 C223.031048,3.38565113 121.815833,-3.59187812 55.1136502,54.5794898 C-2.6053015,104.916792 -15.5861532,187.564817 19.6126278,252.181692 M292.355699,309.511149 C219.638823,372.92869 109.586476,365.877117 45.5095,294.098058 C44.2229201,292.654652 43.4485981,291.347451 45.9651447,293.738807 C107.327428,351.997931 203.420063,356.230337 268.339845,299.613899 C336.793384,239.913197 343.946732,135.922142 284.312976,67.392804 C225.934755,0.305044086 125.163315,-7.95866145 56.7252992,47.7299383 C58.1616301,46.3916567 59.6153102,45.0643447 61.106428,43.7635424 C134.39674,-20.154026 245.610571,-12.4872452 309.458355,60.8842217 C373.305225,134.255689 365.646011,245.593581 292.355699,309.511149" id="Fill-3" fill="#FEFEFE"></path>
                                </g>
                                <path d="M18.9706163,152.343697 C25.704844,119.994581 42.6440519,89.5020556 69.4449085,66.1287496 C134.731762,9.19053862 233.800242,16.0208935 290.675475,81.3791256 C311.993072,105.877722 324.362136,135.128863 328.057515,165.125017 C322.994289,138.304539 310.972209,112.434753 291.77304,90.3713901 C234.167314,24.1721614 133.825039,17.2540504 67.6981184,74.9244768 C43.3060607,96.1971197 26.9822927,123.294578 18.9706163,152.343697" id="Fill-6" fill="#FEFEFE"></path>
                            </g>
                        </g>
                    </g>
                </g>
            </g>
        </g>
    </g>
</svg>