<?xml version="1.0" encoding="UTF-8"?>
<svg width="253px" height="50px" viewBox="0 0 253 50" version="1.1" xmlns="http://www.w3.org/2000/svg" xmlns:xlink="http://www.w3.org/1999/xlink">
    <!-- Generator: Sketch 43.1 (39012) - http://www.bohemiancoding.com/sketch -->
    <title>Logo H</title>
    <desc>Created with Sketch.</desc>
    <defs>
        <polygon id="path-1" points="17.6076212 0.3328 0.285651515 0.3328 0.285651515 24.47926 17.6076212 24.47926 17.6076212 0.3328"></polygon>
        <polygon id="path-3" points="17.6078788 23.39948 17.6078788 0.885310305 1.83806061 0.885310305 1.83806061 23.39948 17.6078788 23.39948"></polygon>
        <polygon id="path-5" points="0 33.214416 0 0.112094985 37.8337628 0.112094985 37.8337628 33.214416 1.85967249e-15 33.214416"></polygon>
        <polygon id="path-7" points="49.1134918 49.6222222 0.268551291 49.6222222 0.268551291 0.395363227 49.1134918 0.395363227 49.1134918 49.6222222"></polygon>
    </defs>
    <g id="Page-1" stroke="none" stroke-width="1" fill="none" fill-rule="evenodd">
        <g id="Home" transform="translate(-142.000000, -29.000000)">
            <g id="1st-Block" transform="translate(0.000000, -24.000000)">
                <g id="Menu" transform="translate(103.000000, 0.000000)">
                    <g id="Logo">
                        <g id="Logo-H-new" transform="translate(37.000000, 53.000000)">
                            <g id="Typo" transform="translate(59.242424, 10.400000)">
                                <path d="M13.1214242,26.1937 C13.0776364,26.3029 12.9926364,26.3835 12.8638485,26.4381 C12.7350606,26.4927 12.603697,26.5187 12.4749091,26.5187 C12.3461212,26.5187 12.2173333,26.4927 12.0885455,26.4381 C11.9571818,26.3835 11.8618788,26.3029 11.7974848,26.1937 L4.52612121,9.5875 L4.42824242,9.5875 L4.49263636,22.5381 C4.49263636,22.8449 4.50293939,23.1491 4.52612121,23.4533 C4.54672727,23.7575 4.62142424,24.0279 4.75021212,24.2671 C4.88157576,24.5089 5.07990909,24.6987 5.34778788,24.8391 C5.61824242,24.9821 6.01233333,25.0523 6.52748485,25.0523 C6.76445455,25.0523 6.95248485,25.0731 7.09415152,25.1173 C7.23324242,25.1615 7.3259697,25.3669 7.36975758,25.7361 C7.36975758,25.9103 7.32081818,26.0741 7.22293939,26.2249 C7.12763636,26.3783 6.98081818,26.4537 6.78763636,26.4537 C6.44248485,26.4329 6.15657576,26.4147 5.92990909,26.4069 C5.70581818,26.3939 5.48945455,26.3835 5.2859697,26.3731 C5.07990909,26.3601 4.86869697,26.3549 4.65490909,26.3549 L3.84612121,26.3549 L2.98839394,26.3549 C2.74112121,26.3549 2.50415152,26.3601 2.28006061,26.3731 C2.05339394,26.3835 1.80869697,26.3939 1.55112121,26.4069 C1.29354545,26.4147 0.992181818,26.4329 0.647030303,26.4537 C0.430666667,26.4537 0.281272727,26.3783 0.19369697,26.2249 C0.10869697,26.0741 0.0649090909,25.9103 0.0649090909,25.7361 C0.0855151515,25.3669 0.167939394,25.1615 0.307030303,25.1173 C0.44869697,25.0731 0.634151515,25.0523 0.87369697,25.0523 C1.38884848,25.0523 1.78293939,24.9821 2.05339394,24.8391 C2.32127273,24.6987 2.52218182,24.5089 2.6509697,24.2671 C2.77975758,24.0279 2.85445455,23.7575 2.87506061,23.4533 C2.89824242,23.1491 2.90854545,22.8449 2.90854545,22.5381 L2.97293939,9.5875 C2.97293939,9.0649 2.92915152,8.6515 2.84415152,8.3473 C2.75915152,8.0431 2.62263636,7.8039 2.43975758,7.6297 C2.25687879,7.4555 2.03021212,7.3203 1.76233333,7.2241 C1.49187879,7.1253 1.17506061,7.0421 0.80930303,6.9771 C0.507939394,6.9121 0.296727273,6.8575 0.178242424,6.8133 C0.0597575758,6.7717 0.000515151515,6.5767 0.000515151515,6.2283 C0.000515151515,5.8591 0.124151515,5.6563 0.371424242,5.6225 C0.61869697,5.5913 0.927787879,5.5757 1.29354545,5.5757 C2.08945455,5.5757 2.81324242,5.6225 3.45975758,5.7213 C4.10627273,5.8201 4.6909697,5.9891 5.219,6.2283 C5.7470303,6.4675 6.21581818,6.8133 6.62536364,7.2709 C7.03490909,7.7285 7.39036364,8.3161 7.69172727,9.0337 L13.2502121,21.6255 L13.3480909,21.6255 L19.7153636,5.7707 L21.5570303,5.7707 C22.2035455,5.7707 22.8346061,5.7655 23.4476364,5.7551 C24.0632424,5.7447 24.7123333,5.7161 25.4026364,5.6719 C25.619,5.6719 25.7683939,5.7499 25.8559697,5.9007 C25.9409697,6.0541 25.9847576,6.2153 25.9847576,6.3895 C25.9641515,6.7613 25.8765758,6.9667 25.7271818,7.0109 C25.5752121,7.0551 25.3923333,7.0759 25.1759697,7.0759 C24.6582424,7.0759 24.2615758,7.1461 23.9808182,7.2891 C23.7000606,7.4295 23.4965758,7.6193 23.3677879,7.8585 C23.239,8.0977 23.1565758,8.3707 23.1256667,8.6749 C23.0921818,8.9791 23.0767273,9.2833 23.0767273,9.5875 L23.0767273,22.5381 C23.0767273,22.8449 23.0921818,23.1491 23.1256667,23.4533 C23.1565758,23.7575 23.239,24.0279 23.3677879,24.2671 C23.4965758,24.5089 23.7000606,24.6987 23.9808182,24.8391 C24.2615758,24.9821 24.6582424,25.0523 25.1759697,25.0523 C25.3923333,25.0523 25.5752121,25.0731 25.7271818,25.1173 C25.8765758,25.1615 25.9641515,25.3669 25.9847576,25.7361 C25.9847576,25.9103 25.9409697,26.0741 25.8559697,26.2249 C25.7683939,26.3783 25.619,26.4537 25.4026364,26.4537 C24.7123333,26.4095 24.0555152,26.3835 23.4321818,26.3731 C22.8062727,26.3601 22.1726364,26.3549 21.5261212,26.3549 C20.253697,26.3549 18.9271818,26.3887 17.5491515,26.4537 C17.3327879,26.4537 17.1833939,26.3783 17.0958182,26.2249 C17.0108182,26.0741 16.9670303,25.9103 16.9670303,25.7361 C16.9876364,25.3669 17.0700606,25.1615 17.2091515,25.1173 C17.3508182,25.0731 17.5388485,25.0523 17.7758182,25.0523 C18.2935455,25.0523 18.6927879,24.9821 18.9709697,24.8391 C19.2517273,24.6987 19.4552121,24.5089 19.5865758,24.2671 C19.7153636,24.0279 19.7952121,23.7575 19.828697,23.4533 C19.8596061,23.1491 19.8776364,22.8449 19.8776364,22.5381 L19.8776364,9.5875 L19.7797576,9.5875 L13.1214242,26.1937 Z" id="Fill-1" fill="#0057A4"></path>
                                <path d="M35.1312727,17.28688 C35.649,17.28688 36.0585455,17.18288 36.3599091,16.97748 C36.6612727,16.76948 36.8338485,16.41848 36.8776364,15.91668 C36.8776364,15.45908 36.8132424,15.01448 36.6844545,14.57768 C36.5530909,14.14608 36.3599091,13.75868 36.0997576,13.42068 C35.8421818,13.08528 35.5202121,12.81748 35.1312727,12.62248 C34.7449091,12.42488 34.2915758,12.32868 33.7738485,12.32868 C32.674,12.32868 31.7699091,12.76288 31.059,13.63388 C30.3480909,14.50228 29.9488485,15.72168 29.8638485,17.28688 L35.1312727,17.28688 Z M40.1411212,23.32148 C39.474,24.38748 38.6317273,25.22468 37.6194545,25.83568 C36.6071818,26.44148 35.4455152,26.74828 34.129303,26.74828 C32.8800606,26.74828 31.7802121,26.54028 30.8349091,26.12688 C29.8844545,25.71608 29.0988485,25.14928 28.4755152,24.43168 C27.8496061,23.71408 27.3756667,22.87688 27.0511212,21.92008 C26.7291515,20.96328 26.5668788,19.95188 26.5668788,18.88588 C26.5668788,17.94988 26.734303,17.02168 27.0691515,16.09608 C27.4014242,15.17308 27.8805152,14.34628 28.5064242,13.61568 C29.1297576,12.88768 29.8844545,12.30268 30.7679394,11.85548 C31.6514242,11.41088 32.6533939,11.18728 33.7738485,11.18728 C34.7655152,11.18728 35.6335455,11.32248 36.3753636,11.59548 C37.1197576,11.86588 37.7430909,12.24808 38.2505152,12.73688 C38.7553636,13.22568 39.1546061,13.80808 39.4456667,14.48148 C39.7367273,15.15488 39.9144545,15.88288 39.9788485,16.66808 C39.9788485,17.42988 39.7702121,17.92908 39.3503636,18.16828 C38.9305152,18.40748 38.3844545,18.52708 37.7173333,18.52708 L29.8638485,18.52708 C29.8638485,19.48388 29.9617273,20.36528 30.1549091,21.16868 C30.3480909,21.97468 30.6494545,22.66888 31.059,23.25648 C31.4685455,23.84408 31.9965758,24.30168 32.6430909,24.62668 C33.2896061,24.95428 34.0649091,25.11808 34.9715758,25.11808 C35.8756667,25.11808 36.6509697,24.92048 37.2974848,24.53048 C37.944,24.13788 38.5673333,23.45408 39.1726364,22.47388 C39.3426364,22.25808 39.5821818,22.24508 39.8835455,22.44008 C40.0561212,22.54928 40.1617273,22.69228 40.2055152,22.86648 C40.249303,23.04068 40.228697,23.19148 40.1411212,23.32148 L40.1411212,23.32148 Z" id="Fill-3" fill="#0057A4"></path>
                                <g id="Group-7" transform="translate(41.212121, 2.268240)">
                                    <mask id="mask-2" fill="white">
                                        <use xlink:href="#path-1"></use>
                                    </mask>
                                    <g id="Clip-6"></g>
                                    <path d="M11.5983788,12.60506 C11.510803,12.34246 11.3768636,12.06166 11.1939848,11.75486 C11.0111061,11.45326 10.7741364,11.18026 10.4830758,10.94106 C10.1920152,10.70186 9.84686364,10.49906 9.45019697,10.33786 C9.05095455,10.17406 8.5924697,10.09346 8.07474242,10.09346 C7.45140909,10.09346 6.86928788,10.24426 6.33095455,10.54846 C5.79262121,10.85526 5.31868182,11.29466 4.90656061,11.86926 C4.49959091,12.44646 4.18019697,13.15366 3.9535303,13.99086 C3.72686364,14.82806 3.6135303,15.77966 3.6135303,16.84566 C3.6135303,17.62826 3.70625758,18.37966 3.88913636,19.09726 C4.07201515,19.81486 4.35277273,20.45186 4.72883333,21.00566 C5.10489394,21.55946 5.58140909,22.00666 6.15322727,22.34206 C6.7224697,22.68006 7.39731818,22.84906 8.17262121,22.84906 C8.99171212,22.84906 9.66913636,22.68006 10.2074697,22.34206 C10.745803,22.00666 11.2094394,21.62966 11.5983788,21.21886 L11.5983788,12.60506 Z M14.5398939,21.08626 C14.5398939,21.71806 14.7382273,22.19646 15.1374697,22.52146 C15.5341364,22.84906 16.1755,23.01026 17.0589848,23.01026 C17.2959545,23.01026 17.4479242,23.07006 17.5123182,23.18966 C17.5767121,23.31186 17.6076212,23.42626 17.6076212,23.53286 C17.6076212,23.83706 17.4273182,24.02426 17.0589848,24.08926 L11.9203485,24.44806 C11.7477727,24.44806 11.6576212,24.38046 11.6473182,24.25046 C11.6344394,24.12046 11.6292879,23.96966 11.6292879,23.79546 L11.6292879,22.49026 L11.5339848,22.49026 C10.9724697,23.05706 10.2950455,23.52766 9.49656061,23.90986 C8.70065152,24.28946 7.89186364,24.47926 7.07277273,24.47926 C6.16868182,24.47926 5.30580303,24.28946 4.48671212,23.90986 C3.66762121,23.52766 2.94640909,22.99466 2.32307576,22.30826 C1.69716667,21.62446 1.20262121,20.80286 0.834287879,19.84606 C0.468530303,18.88926 0.285651515,17.83626 0.285651515,16.68186 C0.285651515,15.68346 0.468530303,14.71366 0.834287879,13.78026 C1.20262121,12.84426 1.72034848,12.01746 2.3874697,11.29986 C3.05459091,10.58226 3.84019697,10.00506 4.74686364,9.57086 C5.65095455,9.13666 6.65292424,8.91826 7.75277273,8.91826 C8.4405,8.91826 9.11534848,8.99886 9.77216667,9.16266 C10.4289848,9.32646 11.0059545,9.55006 11.5005,9.83086 L11.5983788,9.83086 L11.5983788,4.84146 L11.5983788,4.00686 C11.5983788,3.73646 11.5494394,3.49726 11.4515606,3.28926 C11.3562576,3.08386 11.1939848,2.92006 10.9673182,2.80046 C10.7406515,2.68346 10.4032273,2.62106 9.94989394,2.62106 C9.75671212,2.62106 9.57898485,2.59506 9.41671212,2.54046 C9.25443939,2.48586 9.17459091,2.29606 9.17459091,1.96846 C9.17459091,1.83846 9.21580303,1.71886 9.30337879,1.60966 C9.38837879,1.50046 9.51716667,1.42506 9.68974242,1.38346 C10.4238333,1.27426 11.0265606,1.15986 11.5005,1.04026 C11.9744394,0.92066 12.3633788,0.81146 12.6647424,0.71266 C12.9661061,0.61646 13.2082273,0.53326 13.3911061,0.46826 C13.5739848,0.40326 13.7517121,0.36166 13.9242879,0.33826 C14.0968636,0.31746 14.2411061,0.34866 14.3621667,0.43446 C14.4806515,0.52286 14.5398939,0.69706 14.5398939,0.95966 L14.5398939,21.08626 Z" id="Fill-5" fill="#0057A4" mask="url(#mask-2)"></path>
                                </g>
                                <path d="M62.2784697,7.0759 C62.0415,7.0759 61.7993788,7.0421 61.5521061,6.9771 C61.3048333,6.9121 61.0781667,6.7977 60.8746818,6.6365 C60.6686212,6.4727 60.4960455,6.2647 60.3543788,6.0151 C60.2152879,5.7655 60.1457424,5.4561 60.1457424,5.0843 C60.1457424,4.9101 60.1946818,4.7099 60.2925606,4.4811 C60.3878636,4.2549 60.5398333,4.0417 60.7433182,3.8467 C60.946803,3.6517 61.201803,3.4879 61.5031667,3.3553 C61.8045303,3.2279 62.1599848,3.1603 62.5695303,3.1603 C62.7627121,3.1603 62.9687727,3.1993 63.1851364,3.2747 C63.3989242,3.3501 63.5998333,3.4697 63.7801364,3.6335 C63.9655909,3.7973 64.1149848,4.0027 64.2334697,4.2549 C64.3519545,4.5045 64.411197,4.8139 64.411197,5.1831 C64.411197,5.6407 64.2283182,6.0697 63.8625606,6.4727 C63.496803,6.8757 62.9687727,7.0759 62.2784697,7.0759 L62.2784697,7.0759 Z M64.0892273,22.9957 L64.0892273,23.8277 C64.0892273,24.1007 64.1381667,24.3399 64.2334697,24.5453 C64.3313485,24.7533 64.4987727,24.9145 64.7357424,25.0341 C64.9727121,25.1563 65.3178636,25.2161 65.7686212,25.2161 C65.9643788,25.2161 66.1292273,25.2291 66.2708939,25.2629 C66.4099848,25.2967 66.4898333,25.4761 66.5130152,25.8011 C66.5130152,25.9753 66.4692273,26.1287 66.3842273,26.2587 C66.2966515,26.3887 66.1678636,26.4537 65.9952879,26.4537 C65.3719545,26.4121 64.7949848,26.3835 64.2669545,26.3731 C63.7389242,26.3601 63.1851364,26.3575 62.6004394,26.3575 C62.0208939,26.3575 61.4722576,26.3601 60.9545303,26.3731 C60.436803,26.3835 59.8649848,26.4121 59.2416515,26.4537 C59.0690758,26.4537 58.9402879,26.3887 58.8527121,26.2587 C58.7677121,26.1287 58.7239242,25.9753 58.7239242,25.8011 C58.7677121,25.4761 58.8527121,25.2967 58.9815,25.2629 C59.1128636,25.2291 59.2828636,25.2161 59.4992273,25.2161 C59.9525606,25.2161 60.2925606,25.1563 60.5166515,25.0341 C60.7433182,24.9145 60.9055909,24.7533 61.0008939,24.5453 C61.0987727,24.3399 61.1477121,24.1007 61.1477121,23.8277 L61.1477121,22.9957 L61.1477121,15.5259 L61.1477121,14.6939 C61.1477121,14.4209 61.0987727,14.1817 61.0008939,13.9763 C60.9055909,13.7683 60.7433182,13.6071 60.5166515,13.4849 C60.2925606,13.3653 59.9525606,13.3055 59.4992273,13.3055 C59.3060455,13.3055 59.1283182,13.2795 58.9660455,13.2249 C58.8037727,13.1703 58.7239242,12.9805 58.7239242,12.6555 C58.7239242,12.5229 58.7677121,12.4033 58.8527121,12.2941 C58.9402879,12.1875 59.0690758,12.1121 59.2416515,12.0679 C59.9731667,11.9587 60.5758939,11.8443 61.0498333,11.7247 C61.5263485,11.6051 61.9127121,11.4959 62.2140758,11.3997 C62.5154394,11.3009 62.7575606,11.2177 62.9404394,11.1527 C63.1258939,11.0877 63.3010455,11.0461 63.4736212,11.0227 C63.646197,11.0019 63.7930152,11.0331 63.9115,11.1215 C64.0299848,11.2073 64.0892273,11.3815 64.0892273,11.6441 L64.0892273,22.9957 Z" id="Fill-8" fill="#0057A4"></path>
                                <path d="M87.9404848,8.67438 C88.1774545,7.97758 88.1877576,7.53818 87.9739697,7.35358 C87.7576061,7.16898 87.2733636,7.07538 86.5186667,7.07538 C86.281697,7.07538 86.0936667,7.05458 85.9545758,7.01038 C85.8129091,6.96618 85.7330606,6.76078 85.7098788,6.39158 C85.7098788,6.21738 85.7536667,6.05358 85.8412424,5.90278 C85.9262424,5.74938 86.0653333,5.67398 86.2610909,5.67398 C86.9488182,5.71558 87.5463939,5.74418 88.0538182,5.75458 C88.5612424,5.76498 89.1356364,5.77018 89.7821515,5.77018 L90.6063939,5.77018 C90.8330606,5.77018 91.0545758,5.76498 91.2683636,5.75458 C91.4847273,5.74418 91.7113939,5.73378 91.9483636,5.72078 C92.1853333,5.71038 92.4763939,5.69478 92.8215455,5.67398 C93.0379091,5.67398 93.187303,5.74938 93.272303,5.90278 C93.3598788,6.05358 93.4036667,6.21738 93.4036667,6.39158 C93.3804848,6.76078 93.3006364,6.96618 93.1589697,7.01038 C93.0198788,7.05458 92.8318485,7.07538 92.5948788,7.07538 C91.7757879,7.07538 91.1292727,7.22878 90.6553333,7.53298 C90.1813939,7.83718 89.7718485,8.42478 89.426697,9.29318 C89.0609394,10.27338 88.7338182,11.16518 88.4427576,11.97118 C88.151697,12.77458 87.8168485,13.69758 87.4407879,14.74278 C87.0621515,15.78538 86.6809394,16.85398 86.292,17.93818 L83.1907879,26.68198 L81.6710909,26.68198 C80.5068485,23.48658 79.4842727,20.64738 78.6007879,18.16698 C78.2118485,17.10358 77.8357879,16.06358 77.4700303,15.05218 C77.101697,14.04078 76.7745758,13.13858 76.4835152,12.34558 C76.1924545,11.54998 75.8730606,10.67638 75.5304848,9.71698 C75.3579091,9.28278 75.1904848,8.90838 75.0282121,8.59378 C74.8685152,8.27918 74.6882121,8.01658 74.4950303,7.80858 C74.3018485,7.60318 74.0803333,7.43418 73.8330606,7.30418 C73.5857879,7.17418 73.2895758,7.07538 72.9444242,7.01038 C72.6430606,6.94538 72.4318485,6.89078 72.3159394,6.84658 C72.1948788,6.80498 72.1356364,6.60998 72.1356364,6.25898 C72.1356364,5.88978 72.2618485,5.68958 72.5091212,5.65578 C72.7563939,5.62458 73.0629091,5.60898 73.4286667,5.60898 C74.8736667,5.62978 75.9863939,5.89758 76.7745758,6.40718 C77.5601818,6.91938 78.2015455,7.79298 78.6986667,9.03318 L83.3839697,21.75758 L83.4818485,21.75758 L87.9404848,8.67438 Z" id="Fill-10" fill="#0057A4"></path>
                                <path d="M98.1214242,25.54136 C98.8967273,25.54136 99.5535455,25.35676 100.094455,24.98756 C100.632788,24.61836 101.068091,24.12176 101.400364,23.50036 C101.735212,22.88156 101.977333,22.16396 102.129303,21.34756 C102.278697,20.53376 102.35597,19.66796 102.35597,18.75536 C102.35597,17.90516 102.273545,17.09656 102.113848,16.32436 C101.951576,15.55216 101.704303,14.87356 101.369455,14.28596 C101.034606,13.69836 100.599303,13.23816 100.06097,12.90016 C99.5200606,12.56216 98.8761212,12.39316 98.1214242,12.39316 C97.3229394,12.39316 96.6558182,12.57256 96.1174848,12.93136 C95.5791515,13.29016 95.1412727,13.78156 94.809,14.40036 C94.4741515,15.01916 94.2371818,15.73416 94.0980909,16.53756 C93.9564242,17.34096 93.8868788,18.20156 93.8868788,19.11416 C93.8868788,19.96176 93.9641515,20.77296 94.1135455,21.54516 C94.2629394,22.31736 94.5076364,23.00116 94.8424848,23.59916 C95.1747576,24.19716 95.6100606,24.67296 96.1509697,25.01876 C96.689303,25.36716 97.3461212,25.54136 98.1214242,25.54136 M98.1214242,11.18676 C99.2418788,11.18676 100.26703,11.39996 101.191727,11.82376 C102.119,12.24756 102.914909,12.80656 103.584606,13.50336 C104.251727,14.20016 104.764303,15.00356 105.119758,15.91616 C105.472636,16.82876 105.652939,17.77776 105.652939,18.75536 C105.652939,20.03976 105.41597,21.18116 104.939455,22.18216 C104.465515,23.18056 103.867939,24.02036 103.146727,24.69116 C102.425515,25.36716 101.616727,25.87676 100.722939,26.22516 C99.8291515,26.57356 98.9611212,26.74776 98.1214242,26.74776 C96.9803636,26.74776 95.9500606,26.53456 95.0356667,26.11076 C94.118697,25.68696 93.3279394,25.12796 92.6582424,24.43116 C91.9911212,23.73696 91.4785455,22.93096 91.1256667,22.01836 C90.7702121,21.10316 90.5924848,20.15936 90.5924848,19.17916 C90.5924848,17.89736 90.8217273,16.75596 91.2853636,15.75236 C91.749,14.75396 92.3414242,13.91676 93.0626364,13.24336 C93.7838485,12.56736 94.5926364,12.05516 95.489,11.70936 C96.3802121,11.36096 97.2611212,11.18676 98.1214242,11.18676" id="Fill-12" fill="#0057A4"></path>
                                <path d="M115.573212,17.28688 C116.090939,17.28688 116.500485,17.18288 116.801848,16.97748 C117.103212,16.76948 117.275788,16.41848 117.319576,15.91668 C117.319576,15.45908 117.255182,15.01448 117.126394,14.57768 C116.99503,14.14608 116.801848,13.75868 116.541697,13.42068 C116.284121,13.08528 115.962152,12.81748 115.573212,12.62248 C115.186848,12.42488 114.733515,12.32868 114.215788,12.32868 C113.115939,12.32868 112.211848,12.76288 111.500939,13.63388 C110.79003,14.50228 110.390788,15.72168 110.305788,17.28688 L115.573212,17.28688 Z M120.583061,23.32148 C119.915939,24.38748 119.073667,25.22468 118.061394,25.83568 C117.049121,26.44148 115.887455,26.74828 114.571242,26.74828 C113.322,26.74828 112.222152,26.54028 111.276848,26.12688 C110.326394,25.71608 109.540788,25.14928 108.917455,24.43168 C108.291545,23.71408 107.817606,22.87688 107.493061,21.92008 C107.171091,20.96328 107.008818,19.95188 107.008818,18.88588 C107.008818,17.94988 107.176242,17.02168 107.511091,16.09608 C107.843364,15.17308 108.322455,14.34628 108.948364,13.61568 C109.571697,12.88768 110.326394,12.30268 111.209879,11.85548 C112.093364,11.41088 113.095333,11.18728 114.215788,11.18728 C115.207455,11.18728 116.075485,11.32248 116.817303,11.59548 C117.561697,11.86588 118.18503,12.24808 118.692455,12.73688 C119.197303,13.22568 119.596545,13.80808 119.887606,14.48148 C120.178667,15.15488 120.356394,15.88288 120.420788,16.66808 C120.420788,17.42988 120.212152,17.92908 119.792303,18.16828 C119.372455,18.40748 118.826394,18.52708 118.159273,18.52708 L110.305788,18.52708 C110.305788,19.48388 110.403667,20.36528 110.596848,21.16868 C110.79003,21.97468 111.091394,22.66888 111.500939,23.25648 C111.910485,23.84408 112.438515,24.30168 113.08503,24.62668 C113.731545,24.95428 114.506848,25.11808 115.413515,25.11808 C116.317606,25.11808 117.092909,24.92048 117.739424,24.53048 C118.385939,24.13788 119.009273,23.45408 119.614576,22.47388 C119.784576,22.25808 120.024121,22.24508 120.325485,22.44008 C120.498061,22.54928 120.603667,22.69228 120.647455,22.86648 C120.691242,23.04068 120.670636,23.19148 120.583061,23.32148 L120.583061,23.32148 Z" id="Fill-14" fill="#0057A4"></path>
                                <path d="M126.691212,12.84972 L126.691212,22.76612 C126.691212,23.09372 126.724697,23.40312 126.789091,23.69692 C126.853485,23.99072 126.956515,24.25852 127.095606,24.49512 C127.234697,24.73692 127.422727,24.92672 127.659697,25.06712 C127.896667,25.21012 128.19803,25.28032 128.566364,25.28032 C128.803333,25.28032 129.066061,25.26212 129.357121,25.23092 C129.648182,25.19972 129.975303,25.09572 130.343636,24.92152 C130.428636,24.87732 130.516212,24.83832 130.601212,24.80712 C130.688788,24.77332 130.773788,24.75772 130.861364,24.75772 C131.033939,24.75772 131.162727,24.82792 131.247727,24.97092 C131.335303,25.11132 131.41,25.25692 131.474394,25.41032 C131.538788,25.60532 131.484697,25.75872 131.312121,25.86792 C130.645,26.30212 130.029394,26.58552 129.470455,26.71552 C128.908939,26.84552 128.285606,26.91052 127.597879,26.91052 C127.100758,26.91052 126.626818,26.81952 126.173485,26.63232 C125.722727,26.44772 125.313182,26.17212 124.944848,25.80032 C124.579091,25.43112 124.28803,24.95792 124.074242,24.38332 C123.857879,23.80612 123.749697,23.13792 123.749697,22.37612 L123.749697,12.78472 L121.874545,12.84972 C121.725152,12.84972 121.611818,12.78992 121.537121,12.67032 C121.459848,12.55072 121.423788,12.41552 121.423788,12.26212 C121.423788,12.09052 121.459848,11.93192 121.537121,11.78892 C121.611818,11.64852 121.725152,11.55492 121.874545,11.51332 C122.479848,11.40412 122.964091,11.22992 123.329848,10.99072 C123.695606,10.75152 123.99697,10.47332 124.233939,10.15872 C124.470909,9.84412 124.666667,9.48532 124.816061,9.08232 C124.96803,8.67932 125.117424,8.26072 125.269394,7.82652 C125.333788,7.65232 125.423939,7.53792 125.545,7.48332 C125.663485,7.43132 125.807727,7.40272 125.980303,7.40272 C126.109091,7.40272 126.255909,7.43392 126.418182,7.49892 C126.577879,7.56392 126.657727,7.68612 126.657727,7.86032 L126.433636,11.57832 L130.214848,11.34952 C130.40803,11.32872 130.536818,11.38332 130.601212,11.51332 C130.665606,11.64332 130.699091,11.79672 130.699091,11.97092 C130.699091,12.20752 130.660455,12.43112 130.585758,12.63652 C130.508485,12.84452 130.418333,12.94852 130.310152,12.94852 L126.691212,12.84972 Z" id="Fill-16" fill="#0057A4"></path>
                                <path d="M143.142061,9.55526 C143.420242,8.94686 143.605697,8.47366 143.690697,8.13566 C143.778273,7.80026 143.760242,7.55326 143.641758,7.40246 C143.523273,7.24906 143.319788,7.15806 143.028727,7.12426 C142.737667,7.09306 142.353879,7.07486 141.879939,7.07486 L138.358879,7.07486 C137.797364,7.09826 137.346606,7.16846 137.001455,7.28806 C136.656303,7.40766 136.365242,7.61306 136.128273,7.90686 C135.891303,8.20066 135.682667,8.58806 135.497212,9.06646 C135.314333,9.54486 135.116,10.14286 134.899636,10.86046 C134.835242,11.07626 134.701303,11.21926 134.497818,11.28426 C134.291758,11.34926 134.070242,11.35966 133.833273,11.31806 C133.660697,11.27386 133.498424,11.19066 133.34903,11.07106 C133.197061,10.95406 133.132667,10.78506 133.155848,10.56666 L133.802364,6.45606 C133.866758,6.15186 133.967212,5.96206 134.108879,5.88406 C134.24797,5.80866 134.456606,5.76966 134.737364,5.76966 L145.823424,5.76966 C147.072667,5.76966 148.399182,5.73846 149.797818,5.67346 C150.014182,5.67346 150.166152,5.74886 150.251152,5.90226 C150.336152,6.05306 150.382515,6.21686 150.382515,6.39106 C150.359333,6.76026 150.279485,6.96046 150.137818,6.99426 C149.998727,7.02546 149.810697,7.05406 149.573727,7.07486 C149.184788,7.09826 148.839636,7.18926 148.538273,7.35306 C148.236909,7.51686 147.971606,7.71186 147.747515,7.94066 C147.520848,8.16946 147.327667,8.42426 147.165394,8.70766 C147.003121,8.99106 146.846,9.27186 146.696606,9.55526 L139.618424,23.09346 C139.533424,23.28846 139.456152,23.50166 139.391758,23.73046 C139.327364,23.95926 139.327364,24.16986 139.391758,24.36486 C139.456152,24.56246 139.613273,24.72366 139.860545,24.85626 C140.107818,24.98626 140.512212,25.05126 141.073727,25.05126 L144.885848,25.05126 C145.447364,25.03046 145.905848,24.95766 146.258727,24.83806 C146.616758,24.72106 146.910394,24.51306 147.149939,24.21926 C147.384333,23.92546 147.595545,23.54066 147.778424,23.06226 C147.963879,22.58386 148.162212,21.98586 148.378576,21.26566 C148.44297,21.04986 148.576909,20.90946 148.780394,20.84186 C148.986455,20.77686 149.205394,20.76646 149.444939,20.81066 C149.617515,20.85486 149.777212,20.93546 149.929182,21.05506 C150.078576,21.17466 150.14297,21.34366 150.122364,21.56206 L149.475848,25.67006 C149.411455,25.97426 149.308424,26.16666 149.169333,26.24206 C149.030242,26.31746 148.81903,26.35646 148.538273,26.35646 L137.130242,26.35646 C136.483727,26.35646 135.847515,26.36166 135.224182,26.37206 C134.598273,26.38246 133.941455,26.41106 133.251152,26.45526 C133.05797,26.45526 132.911152,26.37726 132.815848,26.22646 C132.71797,26.07566 132.671606,25.91186 132.671606,25.73766 C132.712818,25.36846 132.805545,25.16046 132.944636,25.11626 C133.083727,25.07206 133.271758,25.05126 133.511303,25.05126 C133.768879,25.05126 133.995545,25.03046 134.188727,24.98626 C134.384485,24.94206 134.569939,24.85626 134.755394,24.72366 C134.938273,24.59366 135.116,24.39866 135.288576,24.13866 C135.461152,23.87606 135.664636,23.53026 135.901606,23.09346 L143.142061,9.55526 Z" id="Fill-18" fill="#0057A4"></path>
                                <path d="M158.880712,25.54136 C159.656015,25.54136 160.312833,25.35676 160.853742,24.98756 C161.392076,24.61836 161.827379,24.12176 162.159652,23.50036 C162.4945,22.88156 162.736621,22.16396 162.888591,21.34756 C163.037985,20.53376 163.115258,19.66796 163.115258,18.75536 C163.115258,17.90516 163.032833,17.09656 162.873136,16.32436 C162.710864,15.55216 162.463591,14.87356 162.128742,14.28596 C161.793894,13.69836 161.358591,13.23816 160.820258,12.90016 C160.279348,12.56216 159.635409,12.39316 158.880712,12.39316 C158.082227,12.39316 157.415106,12.57256 156.876773,12.93136 C156.338439,13.29016 155.900561,13.78156 155.568288,14.40036 C155.233439,15.01916 154.99647,15.73416 154.857379,16.53756 C154.715712,17.34096 154.646167,18.20156 154.646167,19.11416 C154.646167,19.96176 154.723439,20.77296 154.872833,21.54516 C155.022227,22.31736 155.266924,23.00116 155.601773,23.59916 C155.934045,24.19716 156.369348,24.67296 156.910258,25.01876 C157.448591,25.36716 158.105409,25.54136 158.880712,25.54136 M158.880712,11.18676 C160.001167,11.18676 161.026318,11.39996 161.951015,11.82376 C162.878288,12.24756 163.674197,12.80656 164.343894,13.50336 C165.011015,14.20016 165.523591,15.00356 165.879045,15.91616 C166.231924,16.82876 166.412227,17.77776 166.412227,18.75536 C166.412227,20.03976 166.175258,21.18116 165.698742,22.18216 C165.224803,23.18056 164.627227,24.02036 163.906015,24.69116 C163.184803,25.36716 162.376015,25.87676 161.482227,26.22516 C160.588439,26.57356 159.720409,26.74776 158.880712,26.74776 C157.739652,26.74776 156.709348,26.53456 155.794955,26.11076 C154.877985,25.68696 154.087227,25.12796 153.41753,24.43116 C152.750409,23.73696 152.237833,22.93096 151.884955,22.01836 C151.5295,21.10316 151.351773,20.15936 151.351773,19.17916 C151.351773,17.89736 151.581015,16.75596 152.044652,15.75236 C152.508288,14.75396 153.100712,13.91676 153.821924,13.24336 C154.543136,12.56736 155.351924,12.05516 156.248288,11.70936 C157.1395,11.36096 158.020409,11.18676 158.880712,11.18676" id="Fill-20" fill="#0057A4"></path>
                                <path d="M169.739591,15.5259 L169.739591,14.6939 C169.739591,14.4209 169.690652,14.1817 169.595348,13.9763 C169.49747,13.7683 169.335197,13.6071 169.10853,13.4849 C168.881864,13.3653 168.544439,13.3055 168.091106,13.3055 C167.897924,13.3055 167.720197,13.2795 167.557924,13.2249 C167.395652,13.1703 167.315803,12.9805 167.315803,12.6555 C167.315803,12.5229 167.359591,12.4033 167.444591,12.2941 C167.532167,12.1875 167.660955,12.1121 167.83353,12.0679 C168.565045,11.9587 169.167773,11.8443 169.641712,11.7247 C170.115652,11.6051 170.504591,11.4959 170.805955,11.3997 C171.107318,11.3009 171.344288,11.2177 171.516864,11.1527 C171.689439,11.0877 171.862015,11.0461 172.034591,11.0227 C172.207167,11.0019 172.351409,11.0331 172.47247,11.1215 C172.588379,11.2073 172.647621,11.3815 172.647621,11.6441 L172.647621,13.6669 L172.7455,13.6669 C173.477015,12.9467 174.231712,12.3565 175.007015,11.8885 C175.784894,11.4205 176.495803,11.1865 177.142318,11.1865 C177.528682,11.1865 177.868682,11.2619 178.159742,11.4153 C178.450803,11.5687 178.692924,11.7689 178.886106,12.0185 C179.079288,12.2681 179.226106,12.5515 179.323985,12.8661 C179.419288,13.1833 179.468227,13.5031 179.468227,13.8281 C179.468227,14.1115 179.424439,14.3897 179.339439,14.6601 C179.251864,14.9331 179.123076,15.1827 178.9505,15.4115 C178.777924,15.6377 178.564136,15.8249 178.303985,15.9653 C178.046409,16.1083 177.74247,16.1759 177.399894,16.1759 C177.054742,16.1759 176.779136,16.1083 176.575652,15.9653 C176.369591,15.8249 176.256258,15.7209 176.235652,15.6559 C176.235652,15.6117 176.338682,15.4817 176.544742,15.2633 C176.748227,15.0475 176.851258,14.7745 176.851258,14.4469 C176.851258,14.0569 176.748227,13.7423 176.544742,13.5031 C176.338682,13.2639 176.063076,13.1443 175.717924,13.1443 C175.352167,13.1443 174.883379,13.3289 174.311561,13.6981 C173.742318,14.0673 173.198833,14.5145 172.681106,15.0371 L172.681106,22.9957 L172.681106,23.8277 C172.681106,24.1007 172.730045,24.3399 172.825348,24.5453 C172.923227,24.7533 173.090652,24.9145 173.327621,25.0341 C173.564591,25.1563 173.909742,25.2161 174.3605,25.2161 C174.556258,25.2161 174.723682,25.2291 174.862773,25.2629 C175.001864,25.2967 175.084288,25.4761 175.104894,25.8011 C175.104894,25.9753 175.061106,26.1287 174.976106,26.2587 C174.891106,26.3887 174.759742,26.4537 174.587167,26.4537 C173.963833,26.4121 173.386864,26.3835 172.858833,26.3731 C172.330803,26.3601 171.777015,26.3575 171.194894,26.3575 C170.612773,26.3575 170.061561,26.3601 169.546409,26.3731 C169.028682,26.3835 168.456864,26.4121 167.83353,26.4537 C167.660955,26.4537 167.532167,26.3887 167.444591,26.2587 C167.359591,26.1287 167.315803,25.9753 167.315803,25.8011 C167.359591,25.4761 167.444591,25.2967 167.575955,25.2629 C167.702167,25.2291 167.874742,25.2161 168.091106,25.2161 C168.544439,25.2161 168.881864,25.1563 169.10853,25.0341 C169.335197,24.9145 169.49747,24.7533 169.595348,24.5453 C169.690652,24.3399 169.739591,24.1007 169.739591,23.8277 L169.739591,22.9957 L169.739591,15.5259 Z" id="Fill-22" fill="#0057A4"></path>
                                <g id="Group-26" transform="translate(177.727273, 10.068240)">
                                    <mask id="mask-4" fill="white">
                                        <use xlink:href="#path-3"></use>
                                    </mask>
                                    <g id="Clip-25"></g>
                                    <path d="M8.94715152,2.12888 C7.97866667,2.12888 7.18018182,2.46428 6.55684848,3.13768 C5.93093939,3.80848 5.61927273,4.76008 5.61927273,5.99508 C5.61927273,7.33928 5.93609091,8.36888 6.57230303,9.08388 C7.20851515,9.79628 8.00957576,10.15508 8.98063636,10.15508 C9.96972727,10.15508 10.7785152,9.80408 11.4044242,9.09948 C12.0277576,8.39488 12.3394242,7.38348 12.3394242,6.06008 C12.3394242,4.82768 12.0226061,3.86308 11.3863939,3.16888 C10.7527576,2.47468 9.93881818,2.12888 8.94715152,2.12888 L8.94715152,2.12888 Z M13.9260909,2.78148 L13.9260909,2.84648 C14.2918485,3.21568 14.6035152,3.70708 14.8610909,4.31548 C15.1186667,4.92388 15.2500303,5.50108 15.2500303,6.04448 C15.2500303,6.82708 15.0774545,7.53428 14.732303,8.16348 C14.3871515,8.79528 13.9312424,9.32828 13.3594242,9.76508 C12.7876061,10.19928 12.1410909,10.52948 11.4198788,10.75828 C10.6986667,10.98708 9.96972727,11.10148 9.23821212,11.10148 L7.81639394,11.10148 C6.69593939,11.10148 5.882,11.21068 5.37715152,11.42648 C4.86972727,11.64488 4.61730303,12.00368 4.61730303,12.50288 C4.61730303,12.89548 4.75124242,13.19448 5.02169697,13.39988 C5.28957576,13.60788 5.78154545,13.73268 6.48987879,13.77428 L10.9201818,13.90688 C13.202303,13.90688 14.8404848,14.26048 15.8321515,14.96508 C16.8238182,15.67228 17.3183636,16.66808 17.3183636,17.95248 C17.3183636,18.82088 17.112303,19.59308 16.7053333,20.26908 C16.2957879,20.94248 15.7085152,21.51448 14.9435152,21.97988 C14.1785152,22.44788 13.266697,22.80148 12.2132121,23.04068 C11.1545758,23.27988 9.98260606,23.39948 8.68957576,23.39948 C7.65412121,23.39948 6.71139394,23.33448 5.86139394,23.20448 C5.00881818,23.07448 4.28760606,22.85608 3.69518182,22.55188 C3.10275758,22.24768 2.64427273,21.84468 2.32230303,21.34548 C1.99775758,20.84368 1.83806061,20.22488 1.83806061,19.48388 C1.83806061,18.76628 2.06472727,18.13188 2.51548485,17.57548 C2.96881818,17.02168 3.57154545,16.74608 4.32624242,16.74608 C4.58381818,16.74608 4.81563636,16.78248 5.02169697,16.86048 C5.22518182,16.93588 5.40290909,17.02688 5.55487879,17.13608 C5.70427273,17.24528 5.82275758,17.35188 5.91033333,17.46108 C5.99533333,17.57028 6.03912121,17.65868 6.03912121,17.72368 C6.03912121,17.76788 5.99018182,17.83288 5.89230303,17.91868 C5.797,18.00448 5.68366667,18.12408 5.55487879,18.27748 C5.42351515,18.43088 5.31018182,18.62068 5.21487879,18.84948 C5.117,19.07828 5.07063636,19.35388 5.07063636,19.68148 C5.07063636,20.70328 5.44154545,21.37668 6.18336364,21.70428 C6.92775758,22.02928 8.08684848,22.19308 9.65806061,22.19308 C11.1236667,22.19308 12.2853333,21.91488 13.1482121,21.36108 C14.0110909,20.80728 14.4412424,19.94148 14.4412424,18.76628 C14.4412424,18.24628 14.297,17.82768 14.0059394,17.51308 C13.7148788,17.19588 13.3310909,16.95668 12.8597273,16.79288 C12.3832121,16.63168 11.8345758,16.52248 11.2086667,16.46788 C10.5853333,16.41328 9.93881818,16.37948 9.26912121,16.36908 C8.602,16.35868 7.93487879,16.34308 7.26775758,16.31968 C6.59806061,16.29888 5.9850303,16.23388 5.42351515,16.12468 C4.66881818,15.99468 4.04033333,15.74508 3.53290909,15.37328 C3.02806061,15.00408 2.77563636,14.37488 2.77563636,13.48308 C2.77563636,12.67708 3.05381818,11.97768 3.61533333,11.37968 C4.17427273,10.78168 5.03715152,10.48008 6.20139394,10.48008 C5.51109091,10.22008 4.94442424,9.92108 4.5039697,9.58308 C4.06351515,9.24768 3.71063636,8.88888 3.45306061,8.50668 C3.19548485,8.12708 3.0100303,7.72928 2.90442424,7.31588 C2.79624242,6.90248 2.74215152,6.48908 2.74215152,6.07828 C2.74215152,5.38148 2.89154545,4.72888 3.19548485,4.12048 C3.49684848,3.51208 3.92184848,2.98428 4.47048485,2.53708 C5.02169697,2.09248 5.67593939,1.73888 6.44351515,1.47628 C7.20851515,1.21628 8.05336364,1.08628 8.98063636,1.08628 C9.58336364,1.08628 10.2118485,1.13568 10.8712424,1.23188 C11.5280606,1.33068 12.0921515,1.49968 12.5660909,1.73888 L16.9963939,0.88868 C17.2307879,0.86788 17.3930606,0.94328 17.4806364,1.11748 C17.5656364,1.29168 17.6094242,1.47628 17.6094242,1.67388 C17.6094242,1.97808 17.5656364,2.25888 17.4806364,2.52148 C17.3930606,2.78148 17.2745758,2.91148 17.1251818,2.91148 L13.9260909,2.78148 Z" id="Fill-24" fill="#0057A4" mask="url(#mask-4)"></path>
                                </g>
                            </g>
                            <g id="Page-1" transform="translate(2.575758, 0.000000)">
                                <g id="Group-3" transform="translate(0.000000, 7.982604)">
                                    <mask id="mask-6" fill="white">
                                        <use xlink:href="#path-5"></use>
                                    </mask>
                                    <g id="Clip-2"></g>
                                    <path d="M33.5916742,0.671897778 C33.1894597,3.11949778 33.0490039,5.23263111 34.07497,7.76143111 C35.2273463,10.6014978 37.243526,13.00592 37.7657664,16.0889422 C38.0798767,17.9481644 37.3712132,19.5837644 34.258201,21.1078756 C31.0015408,22.7028756 27.1492202,22.4966533 25.1106952,23.8003644 C20.6397304,26.6578311 18.8699868,32.8000311 12.8789068,33.2047422 C12.7320666,33.2150533 12.5865032,33.2169867 12.4409399,33.2111867 C11.0849026,33.1615644 9.74801839,32.5048756 7.95209894,32.3244311 C9.55010334,32.0904978 11.1021404,32.5480533 12.7026985,32.4120756 C18.3892448,31.9293867 19.1470679,23.6514978 24.1096281,22.1660533 C29.1705074,20.65032 34.7759723,20.6632089 35.9858078,17.73292 C36.6184975,16.1991422 35.8753585,14.4198311 34.92792,12.6314978 C34.6125328,12.0353867 34.2735234,11.4379867 33.9562209,10.84832 C32.1979692,7.58549778 31.7025431,3.93343111 33.320339,0.474697778 C33.6350878,-0.198746667 33.6721171,0.183408889 33.5916742,0.671897778 M4.5064618,28.1013867 C4.27343279,28.2837644 4.07679461,28.4526089 3.90377855,28.60792 C3.13701735,28.5486311 1.26448563,28.4074978 0.983573945,28.4287644 C0.307470603,28.48032 -0.0155778296,28.8308978 0.000383061383,29.3696533 C0.0188976949,29.9702756 0.30363999,30.5174089 0.619027195,30.9788311 C1.77076509,32.66792 3.62095157,33.3207422 5.46986118,32.8773644 C6.15873323,32.7123867 6.70714944,32.43592 7.31749391,32.2554756 C8.00955815,32.0511867 8.76674281,31.9493644 9.62543875,31.8932978 C8.3849583,31.1554089 6.66437426,31.8410978 5.30642165,32.1871644 C3.64521212,32.6112089 2.24448433,32.3179867 1.02443383,30.8898978 C0.317047138,30.0611422 -0.0902747993,29.0989867 0.811196322,28.7426089 C1.0633784,28.6420756 2.75650971,28.7567867 3.71735535,28.7774089 C2.78906993,29.6319422 2.55540249,29.9625422 0.502831909,29.57652 C0.502831909,29.57652 1.00847293,29.9206533 2.11807407,29.9335422 C3.75885366,29.95352 4.65010982,28.5814978 6.0131699,27.91772 C6.93315566,27.4704756 7.91826185,27.2404089 8.89889899,26.7422533 C12.6056563,24.86112 14.7348392,19.85572 17.2821974,16.54972 C18.9114851,14.4333644 20.7935934,11.9026311 21.392446,9.94932 C22.2090052,7.28712 21.9491619,2.61554222 21.833605,1.19840889 C21.8118982,0.93032 21.7952989,0.77952 21.7921067,0.77952 C21.7774227,0.919364444 21.7633771,1.05985333 21.74997,1.19969778 C21.4977879,3.83547556 21.4479899,6.59240889 20.6531375,9.02067556 C19.8563699,11.4553867 17.6639819,13.6619644 16.2262248,16.0928089 C14.2457975,19.4426311 11.8280417,23.8512756 8.46859337,26.2518311 C7.21725952,27.1469644 5.7265123,27.1443867 4.5064618,28.1013867" id="Fill-1" fill="#50BCEA" mask="url(#mask-6)"></path>
                                </g>
                                <g id="Group-6" transform="translate(0.638436, 0.249271)">
                                    <mask id="mask-8" fill="white">
                                        <use xlink:href="#path-7"></use>
                                    </mask>
                                    <g id="Clip-5"></g>
                                    <path d="M2.96387361,35.5606378 C-1.13488319,26.6737489 0.869166278,15.7729711 8.55720824,9.01210444 C17.6925838,0.979104444 31.4642789,1.77177111 39.6445548,10.6779933 C39.4970761,10.4956156 39.3470438,10.3145267 39.1931808,10.1360156 C31.1437843,0.808971111 17.1218223,-0.166073333 7.88174333,7.95972667 C-0.114024605,14.9906156 -1.91185936,26.5351933 2.96387361,35.5606378 M40.7471331,43.5685044 C30.6732572,52.4263933 15.4280526,51.4416822 6.55124346,41.4154156 C6.37311992,41.2137044 6.26586273,41.0313267 6.61444859,41.3651489 C15.1152191,49.5031933 28.4266022,50.0941489 37.420245,42.1855267 C46.9029296,33.84706 47.8937817,19.3219267 39.6330629,9.74934889 C31.5459987,0.378482222 17.585965,-0.775717778 8.1051958,7.00337111 C8.30374929,6.81583778 8.50549495,6.63023778 8.71170966,6.44914889 C18.8647516,-2.47834 34.2714804,-1.40791778 43.1163678,8.84068222 C51.9606167,19.0886378 50.8995366,34.6403711 40.7471331,43.5685044" id="Fill-4" fill="#50BCEA" mask="url(#mask-8)"></path>
                                </g>
                                <path d="M2.62812031,21.7957556 C3.56087477,17.2769111 5.90776418,13.0184222 9.62026742,9.75302222 C18.6643467,1.80057778 32.3881592,2.75435556 40.2670934,11.8835556 C43.2204966,15.3055556 44.9340579,19.3913333 45.4454448,23.5815111 C44.7444425,19.8347111 43.0787639,16.2213111 40.4190411,13.1395778 C32.439234,3.89308889 18.5385749,2.92706667 9.37830031,10.9819778 C5.99906048,13.9535111 3.73772145,17.7383333 2.62812031,21.7957556" id="Fill-7" fill="#50BCEA"></path>
                            </g>
                        </g>
                    </g>
                </g>
            </g>
        </g>
    </g>
</svg>